<svg width="30" height="24" viewBox="0 0 30 24" fill="none" xmlns="http://www.w3.org/2000/svg">
<path fill-rule="evenodd" clip-rule="evenodd" d="M3.6883 0.081219C2.67233 0.271881 1.75941 0.783943 1.09441 1.53612C0.712316 1.96831 0.186977 3.00592 0.076261 3.54693C0.0251181 3.79688 0.000108629 5.8414 0.000108629 9.76698C0.000108629 16.2796 -0.0200535 15.9804 0.488987 17.0142C1.11584 18.287 2.28117 19.1497 3.72343 19.4086C4.12168 19.4801 5.18957 19.5038 8.09657 19.5056L11.9428 19.5081V20.2457V20.9834H11.0624C10.0986 20.9834 9.81302 21.056 9.46001 21.391C9.15716 21.6785 8.99228 22.0546 8.99228 22.4581C8.99228 23.0781 9.25867 23.5264 9.80017 23.8178C10.0744 23.9654 10.1586 23.9695 13.303 23.9893C17.0429 24.0128 17.0809 24.0083 17.5508 23.4743C18.226 22.7074 18.0275 21.6137 17.1324 21.1676C16.7912 20.9976 16.6929 20.9834 15.8631 20.9834H14.9636V20.2471V19.5109L16.4565 19.4919L17.9493 19.473L17.9878 15.9955C18.03 12.1917 18.0147 12.3316 18.4844 11.4242C19.0204 10.3888 19.9757 9.57674 21.0955 9.20469L21.6726 9.01297L24.3305 8.98578L26.9883 8.95866L26.9611 6.34763C26.9339 3.73949 26.9337 3.73604 26.7463 3.17466C26.2489 1.68463 25.1347 0.60719 23.6045 0.136717C23.2508 0.0279681 22.414 0.0167282 13.6991 0.0034507C6.08584 -0.00814077 4.08164 0.00745518 3.6883 0.081219ZM21.7696 12.1875C21.496 12.3304 21.3361 12.477 21.1819 12.7264L20.9701 13.0689L20.9478 17.7463C20.9316 21.1394 20.9481 22.5278 21.0079 22.8032C21.0739 23.1066 21.1572 23.2495 21.4234 23.5158C21.9194 24.0118 21.9749 24.0179 25.677 23.9916L28.8383 23.969L29.1513 23.7934C29.3234 23.6968 29.5605 23.4807 29.6782 23.3132L29.892 23.0086L29.9132 18.1497C29.9278 14.7764 29.9107 13.2099 29.8573 13.0262C29.7564 12.6794 29.4014 12.282 29.0497 12.1222C28.7901 12.0043 28.5077 11.9942 25.4567 11.9927L22.1453 11.9912L21.7696 12.1875Z" fill="white"/>
</svg>
