<svg width="25" height="25" viewBox="0 0 25 25" fill="none" xmlns="http://www.w3.org/2000/svg">
<path d="M3 4H8.76923C9.78929 4 10.7676 4.40522 11.4889 5.12651C12.2102 5.84781 12.6154 6.82609 12.6154 7.84615V21.3077C12.6154 20.5426 12.3115 19.8089 11.7705 19.268C11.2295 18.727 10.4958 18.4231 9.73077 18.4231H3V4Z" stroke="#01010A" stroke-width="2" stroke-linecap="round" stroke-linejoin="round"/>
<path d="M22.2306 4H16.4614C15.4413 4 14.463 4.40522 13.7417 5.12651C13.0205 5.84781 12.6152 6.82609 12.6152 7.84615V21.3077C12.6152 20.5426 12.9191 19.8089 13.4601 19.268C14.0011 18.727 14.7348 18.4231 15.4998 18.4231H22.2306V4Z" stroke="#01010A" stroke-width="2" stroke-linecap="round" stroke-linejoin="round"/>
</svg>
