<svg width="26" height="26" viewBox="0 0 26 26" fill="none" xmlns="http://www.w3.org/2000/svg">
<path d="M17.5 10.3979L8.5 5.20789" stroke="#01010A" stroke-width="2" stroke-linecap="round" stroke-linejoin="round"/>
<path d="M22 16.9979V8.99795C21.9996 8.64722 21.9071 8.30276 21.7315 7.99911C21.556 7.69546 21.3037 7.44331 21 7.26795L14 3.26795C13.696 3.09241 13.3511 3 13 3C12.6489 3 12.304 3.09241 12 3.26795L5 7.26795C4.69626 7.44331 4.44398 7.69546 4.26846 7.99911C4.09294 8.30276 4.00036 8.64722 4 8.99795V16.9979C4.00036 17.3487 4.09294 17.6931 4.26846 17.9968C4.44398 18.3004 4.69626 18.5526 5 18.7279L12 22.7279C12.304 22.9035 12.6489 22.9959 13 22.9959C13.3511 22.9959 13.696 22.9035 14 22.7279L21 18.7279C21.3037 18.5526 21.556 18.3004 21.7315 17.9968C21.9071 17.6931 21.9996 17.3487 22 16.9979Z" stroke="#01010A" stroke-width="2" stroke-linecap="round" stroke-linejoin="round"/>
<path d="M4.26953 7.95789L12.9995 13.0079L21.7295 7.95789" stroke="#01010A" stroke-width="2" stroke-linecap="round" stroke-linejoin="round"/>
<path d="M13 23.0778V12.9978" stroke="#01010A" stroke-width="2" stroke-linecap="round" stroke-linejoin="round"/>
</svg>
