<svg width="32" height="19" viewBox="0 0 32 19" fill="none" xmlns="http://www.w3.org/2000/svg">
<path fill-rule="evenodd" clip-rule="evenodd" d="M3.48506 0.129372C3.06125 0.354049 3 0.574961 3 1.87973V3.01158H2.34125C1.80437 3.01158 1.63688 3.03498 1.43588 3.13788C1.15856 3.27992 0.9375 3.64138 0.9375 3.9527C0.9375 4.26402 1.15856 4.62547 1.43588 4.76752C1.67119 4.88804 1.80013 4.89382 4.24625 4.89382C6.40106 4.89382 6.84806 4.90913 7.04881 4.98975C7.65062 5.23149 7.68244 6.11752 7.10488 6.54987C6.93244 6.67899 6.85806 6.68263 3.79238 6.71331C0.945688 6.7418 0.637563 6.75491 0.45375 6.8558C0.220938 6.98348 0 7.37241 0 7.65443C0 7.96575 0.221063 8.32721 0.498375 8.46925C0.738625 8.59229 0.859562 8.59555 5.16937 8.59655L9.59375 8.59762L9.83725 8.73772C10.4626 9.09761 10.4626 9.97573 9.83725 10.3356L9.59375 10.4757L5.16937 10.4768C0.859562 10.4778 0.738625 10.4811 0.498375 10.6041C0.221063 10.7461 0 11.1076 0 11.4189C0 11.7302 0.221063 12.0917 0.498375 12.2337C0.718562 12.3465 0.865875 12.36 1.8725 12.36H3V13.8683C3 16.0744 2.99975 16.0741 4.73794 16.1245L5.81956 16.1559L5.95669 16.5637C6.14631 17.128 6.38806 17.5179 6.81194 17.9434C8.21506 19.352 10.4722 19.3522 11.875 17.944C12.2993 17.518 12.541 17.1283 12.7309 16.5637L12.8682 16.1559H17.625H22.3818L22.5191 16.5637C22.7089 17.1281 22.9507 17.518 23.3744 17.9434C24.7776 19.352 27.0347 19.3522 28.4375 17.944C28.8619 17.5179 29.1036 17.1281 29.2933 16.5637L29.4304 16.1559L30.3871 16.1245C31.4848 16.0885 31.6699 16.0262 31.8744 15.6238C31.9952 15.386 32 15.2579 32 12.2502C32 8.84852 31.9888 8.71808 31.6413 8.07706C31.4212 7.67118 30.9012 7.20138 30.4131 6.9676C29.6328 6.59373 29.5811 6.58978 25.446 6.58877L21.6733 6.58783L21.4239 6.44716C20.9296 6.16828 20.9375 6.22519 20.9375 2.91998V0L12.3281 0.00276053C3.87988 0.00552115 3.71438 0.00784243 3.48506 0.129372ZM22.8125 2.44691V4.70559H25.375C26.7844 4.70559 27.9375 4.68734 27.9375 4.66506C27.9375 4.58563 27.1536 3.35302 26.7878 2.85724C26.0477 1.85419 25.3292 1.22301 24.4001 0.759985C24.0088 0.564922 22.9813 0.188224 22.8405 0.188224C22.8251 0.188224 22.8125 1.20463 22.8125 2.44691ZM10.0653 13.833C10.6371 14.1221 11.0625 14.7919 11.0625 15.403C11.0625 16.0114 10.6369 16.684 10.0711 16.9699C9.31194 17.3536 8.21981 16.9667 7.79537 16.1639C7.60044 15.7952 7.60044 15.0107 7.79537 14.642C7.97919 14.2943 8.45494 13.8848 8.80681 13.7713C9.16469 13.6559 9.77419 13.6858 10.0653 13.833ZM26.6278 13.833C27.1996 14.1221 27.625 14.7919 27.625 15.403C27.625 16.0114 27.1994 16.684 26.6336 16.9699C25.8744 17.3536 24.7823 16.9667 24.3579 16.1639C24.1629 15.7952 24.1629 15.0107 24.3579 14.642C24.5417 14.2943 25.0174 13.8848 25.3693 13.7713C25.7272 13.6559 26.3367 13.6858 26.6278 13.833Z" fill="white"/>
</svg>
