<svg width="28" height="24" viewBox="0 0 28 24" fill="none" xmlns="http://www.w3.org/2000/svg">
<path d="M18.7273 1H1V16.3636H18.7273V1Z" stroke="#01010A" stroke-width="2" stroke-linecap="round" stroke-linejoin="round"/>
<path d="M18.7273 6.90906H23.4546L27 10.4545V16.3636H18.7273V6.90906Z" stroke="#01010A" stroke-width="2" stroke-linecap="round" stroke-linejoin="round"/>
<path d="M6.31807 22.2727C7.94982 22.2727 9.27262 20.9499 9.27262 19.3182C9.27262 17.6864 7.94982 16.3636 6.31807 16.3636C4.68632 16.3636 3.36353 17.6864 3.36353 19.3182C3.36353 20.9499 4.68632 22.2727 6.31807 22.2727Z" stroke="#01010A" stroke-width="2" stroke-linecap="round" stroke-linejoin="round"/>
<path d="M21.6818 22.2727C23.3136 22.2727 24.6364 20.9499 24.6364 19.3182C24.6364 17.6864 23.3136 16.3636 21.6818 16.3636C20.0501 16.3636 18.7273 17.6864 18.7273 19.3182C18.7273 20.9499 20.0501 22.2727 21.6818 22.2727Z" stroke="#01010A" stroke-width="2" stroke-linecap="round" stroke-linejoin="round"/>
</svg>
