<svg width="23" height="23" viewBox="0 0 23 23" fill="none" xmlns="http://www.w3.org/2000/svg">
<path fill-rule="evenodd" clip-rule="evenodd" d="M9.30002 0.0312172C8.7981 0.182385 8.31907 0.568078 8.0787 1.01464L7.91525 1.31833L7.8848 2.37475C7.85834 3.29303 7.84036 3.46074 7.74703 3.65754C7.58951 3.98976 7.39215 4.18892 7.07123 4.33963C6.82393 4.45579 6.73516 4.47103 6.40077 4.45483C6.02556 4.43662 5.99443 4.42455 5.2287 4.00012C4.79606 3.76031 4.30477 3.52579 4.13687 3.4789C3.48606 3.2973 2.72159 3.4952 2.24251 3.96923C2.05831 4.15149 0.588538 6.50951 0.193097 7.2571C-0.167233 7.93844 -0.0109643 8.84328 0.559244 9.37657C0.683074 9.49242 1.11452 9.77172 1.51803 9.99729C1.92154 10.2229 2.32757 10.477 2.42027 10.5621C2.95337 11.0513 2.95337 11.9591 2.42027 12.4483C2.32757 12.5334 1.92154 12.7875 1.51803 13.0131C1.11452 13.2387 0.683074 13.518 0.559244 13.6338C-0.0109643 14.1671 -0.167233 15.072 0.193097 15.7533C0.588538 16.5009 2.05831 18.8589 2.24251 19.0412C2.72159 19.5152 3.48606 19.7131 4.13687 19.5315C4.30477 19.4846 4.79606 19.2501 5.2287 19.0103C5.99443 18.5858 6.02556 18.5738 6.40077 18.5556C6.73516 18.5394 6.82393 18.5546 7.07123 18.6708C7.39215 18.8215 7.58951 19.0206 7.74703 19.3529C7.84036 19.5496 7.85834 19.7173 7.88475 20.6356C7.91431 21.6654 7.91876 21.6988 8.06056 21.9607C8.26431 22.3369 8.56328 22.6301 8.94619 22.8295L9.27382 23H11.4748H13.6758L13.9732 22.8662C14.3711 22.6871 14.6975 22.3883 14.9122 22.0066L15.0892 21.6921L15.1184 20.6356C15.1439 19.7157 15.1615 19.55 15.255 19.3529C15.4125 19.0206 15.6098 18.8215 15.9308 18.6708C16.1781 18.5546 16.2668 18.5394 16.6012 18.5556C16.9764 18.5738 17.0076 18.5858 17.7733 19.0103C18.2059 19.2501 18.6972 19.4846 18.8651 19.5315C19.5159 19.7131 20.2804 19.5152 20.7595 19.0412C20.9437 18.8589 22.4134 16.5009 22.8089 15.7533C22.9708 15.4472 23.0386 15.0062 22.9782 14.6519C22.8584 13.9491 22.4947 13.5526 21.4533 12.9898C21.0954 12.7963 20.7166 12.5637 20.6112 12.4726C20.0309 11.971 20.0299 11.0403 20.6092 10.5395C20.7157 10.4475 21.0954 10.2141 21.4533 10.0206C21.811 9.82726 22.2248 9.56351 22.3727 9.43447C22.9945 8.89203 23.1811 7.96082 22.8089 7.2571C22.4134 6.50951 20.9437 4.15149 20.7595 3.96923C20.2804 3.4952 19.5159 3.2973 18.8651 3.4789C18.6972 3.52579 18.2059 3.76031 17.7733 4.00012C17.0076 4.42455 16.9764 4.43662 16.6012 4.45483C16.2668 4.47103 16.1781 4.45579 15.9308 4.33963C15.6098 4.18892 15.4125 3.98976 15.255 3.65754C15.1615 3.46039 15.1439 3.29469 15.1184 2.37475L15.0892 1.31833L14.9106 1.00075C14.709 0.642479 14.3499 0.306841 13.9787 0.129816C13.7284 0.0104914 13.7265 0.0103908 11.5796 0.00108428C10.3979 -0.00404688 9.37208 0.00953556 9.30002 0.0312172ZM12.4051 5.94553C14.9062 6.30743 16.9124 8.23796 17.294 10.65C17.7804 13.7244 15.5825 16.6011 12.3919 17.0662C9.18935 17.5331 6.19252 15.4232 5.70799 12.3604C5.11231 8.59522 8.47267 5.37653 12.4051 5.94553ZM10.8702 8.1473C10.6993 8.23001 10.6046 8.32096 10.5184 8.48495C10.4049 8.70107 10.4006 8.75887 10.4017 10.0444C10.4027 11.2406 10.413 11.4004 10.5006 11.5807C10.6407 11.869 12.784 13.9014 12.9945 13.9456C13.081 13.9637 13.1794 13.9866 13.2133 13.9965C13.3443 14.0347 13.6784 13.9022 13.8382 13.7488C13.998 13.5954 14.136 13.2747 14.0962 13.1489C14.0859 13.1164 14.062 13.0219 14.0431 12.9389C14.0188 12.8326 13.724 12.5129 13.0454 11.8573L12.0823 10.9267L12.0667 9.7355C12.0523 8.62551 12.0439 8.53461 11.9433 8.4024C11.8165 8.23554 11.4313 8.03412 11.239 8.03412C11.1647 8.03412 10.9988 8.08503 10.8702 8.1473Z" fill="white"/>
</svg>
