<svg width="26" height="26" viewBox="0 0 26 26" fill="none" xmlns="http://www.w3.org/2000/svg">
<path d="M3 19.6667V13C3 10.3478 4.05357 7.8043 5.92893 5.92893C7.8043 4.05357 10.3478 3 13 3C15.6522 3 18.1957 4.05357 20.0711 5.92893C21.9464 7.8043 23 10.3478 23 13V19.6667" stroke="#01010A" stroke-width="2" stroke-linecap="round" stroke-linejoin="round"/>
<path d="M23 20.7777C23 21.3671 22.7659 21.9323 22.3491 22.3491C21.9324 22.7658 21.3671 22.9999 20.7778 22.9999H19.6667C19.0773 22.9999 18.5121 22.7658 18.0953 22.3491C17.6786 21.9323 17.4444 21.3671 17.4444 20.7777V17.4444C17.4444 16.855 17.6786 16.2898 18.0953 15.873C18.5121 15.4563 19.0773 15.2222 19.6667 15.2222H23V20.7777ZM3 20.7777C3 21.3671 3.23413 21.9323 3.65087 22.3491C4.06762 22.7658 4.63285 22.9999 5.22222 22.9999H6.33333C6.9227 22.9999 7.48793 22.7658 7.90468 22.3491C8.32143 21.9323 8.55556 21.3671 8.55556 20.7777V17.4444C8.55556 16.855 8.32143 16.2898 7.90468 15.873C7.48793 15.4563 6.9227 15.2222 6.33333 15.2222H3V20.7777Z" stroke="#01010A" stroke-width="2" stroke-linecap="round" stroke-linejoin="round"/>
</svg>
