<svg width="26" height="26" viewBox="0 0 26 26" fill="none" xmlns="http://www.w3.org/2000/svg">
<path d="M22 11C22 18 13 24 13 24C13 24 4 18 4 11C4 8.61305 4.94821 6.32387 6.63604 4.63604C8.32387 2.94821 10.6131 2 13 2C15.3869 2 17.6761 2.94821 19.364 4.63604C21.0518 6.32387 22 8.61305 22 11Z" stroke="#01010A" stroke-width="2" stroke-linecap="round" stroke-linejoin="round"/>
<path d="M13 14C14.6569 14 16 12.6569 16 11C16 9.34315 14.6569 8 13 8C11.3431 8 10 9.34315 10 11C10 12.6569 11.3431 14 13 14Z" stroke="#01010A" stroke-width="2" stroke-linecap="round" stroke-linejoin="round"/>
</svg>
