<svg width="23" height="23" viewBox="0 0 23 23" fill="none" xmlns="http://www.w3.org/2000/svg">
<path fill-rule="evenodd" clip-rule="evenodd" d="M2.31437 0.0629648C2.13358 0.144983 0.106776 2.18887 0.0470964 2.34935C0.0211664 2.41892 0 2.53676 0 2.61118C0 2.79656 1.98304 6.71198 2.17362 6.90289C2.29298 7.02244 2.52613 7.11371 3.70749 7.50331L5.10061 7.9627L6.24656 9.10156L7.39251 10.2405L8.87551 8.95829C9.69116 8.25311 10.3781 7.6571 10.4022 7.63378C10.43 7.60677 9.99589 7.13951 9.20496 6.34522L7.96409 5.09909L7.50468 3.70591C7.11515 2.52449 7.02387 2.29133 6.90434 2.17197C6.69797 1.966 2.79608 -0.00233487 2.59866 2.07925e-06C2.51646 0.000990788 2.38852 0.0293038 2.31437 0.0629648ZM17.0545 0.0725373C16.6762 0.153072 16.3105 0.295851 15.9634 0.498491C15.7873 0.601272 15.2644 1.08794 14.3046 2.0424C13.0527 3.28728 12.8883 3.46749 12.7663 3.72856C12.6912 3.88936 12.6092 4.12975 12.5839 4.26277C12.5587 4.3958 12.5381 5.14969 12.5381 5.9381C12.5381 7.06325 12.5246 7.40381 12.4753 7.52169C12.4289 7.63274 10.9162 8.9653 6.66692 12.6383C2.43288 16.2981 0.864497 17.6796 0.705457 17.8893C0.330483 18.3838 0.123268 18.8992 0.0407599 19.5427C-0.183892 21.2946 1.14613 22.8753 2.94465 22.9937C3.7878 23.0492 4.66802 22.7338 5.26225 22.1632C5.43464 21.9976 7.7549 19.3445 10.4184 16.2674C13.0818 13.1902 15.3288 10.6269 15.4117 10.5711C15.5601 10.4711 15.5827 10.4696 16.9825 10.4692C19.3105 10.4687 19.118 10.5506 20.864 8.81663C22.4408 7.25074 22.6543 6.97215 22.8752 6.19291C23.1874 5.09127 22.9036 3.86913 22.1399 3.0259C21.894 2.75436 21.681 2.66417 21.4066 2.71536C21.2572 2.74326 21.0847 2.89557 20.1323 3.84064C19.1942 4.7716 19.0059 4.93838 18.8628 4.96521C18.3337 5.06448 17.9429 4.67367 18.0422 4.14458C18.069 4.00148 18.2358 3.81318 19.1667 2.87499C20.1117 1.92255 20.264 1.75002 20.2919 1.60059C20.3431 1.32622 20.2529 1.11324 19.9814 0.867324C19.2018 0.161162 18.0752 -0.144754 17.0545 0.0725373ZM13.9485 14.2521C12.7876 15.5951 11.8223 16.7191 11.8034 16.7498C11.7691 16.8058 15.3965 21.2863 15.8802 21.7854C16.3436 22.2636 16.9774 22.6305 17.7285 22.8555C18.085 22.9623 18.2103 22.9769 18.7846 22.9785C19.498 22.9806 19.7806 22.9307 20.3917 22.695C21.38 22.3139 22.3146 21.3792 22.6958 20.3909C22.9314 19.7797 22.9813 19.4971 22.9793 18.7837C22.9776 18.208 22.9632 18.0849 22.8556 17.7276C22.6214 16.9493 22.1829 16.2274 21.6578 15.7554C21.3217 15.4534 16.2743 11.8515 16.1553 11.8287C16.076 11.8136 15.6909 12.2365 13.9485 14.2521ZM3.64709 19.1342C3.7127 19.1718 3.80878 19.2779 3.86055 19.37C4.11558 19.8238 3.80245 20.3563 3.28057 20.3563C3.00343 20.3563 2.80246 20.225 2.68984 19.9704C2.42443 19.3703 3.07191 18.8047 3.64709 19.1342Z" fill="white"/>
</svg>
